<?xml version="1.0" encoding="UTF-8" standalone="no"?>
<!-- Created with Inkscape (http://www.inkscape.org/) -->

<svg
   xmlns:dc="http://purl.org/dc/elements/1.1/"
   xmlns:cc="http://creativecommons.org/ns#"
   xmlns:rdf="http://www.w3.org/1999/02/22-rdf-syntax-ns#"
   xmlns:svg="http://www.w3.org/2000/svg"
   xmlns="http://www.w3.org/2000/svg"
   xmlns:sodipodi="http://sodipodi.sourceforge.net/DTD/sodipodi-0.dtd"
   xmlns:inkscape="http://www.inkscape.org/namespaces/inkscape"
   width="1024"
   height="1024"
   viewBox="0 0 270.93333 270.93334"
   version="1.1"
   id="svg3184"
   inkscape:version="0.92.4 (5da689c313, 2019-01-14)"
   sodipodi:docname="logo-inkscape.svg"
   inkscape:export-filename="D:\malachai.github.io\static\logos\logo-1024.png"
   inkscape:export-xdpi="96"
   inkscape:export-ydpi="96">
  <defs
     id="defs3178">
    <inkscape:path-effect
       effect="copy_rotate"
       starting_point="146.64019,304"
       origin="90,304"
       id="path-effect8721"
       is_visible="true"
       copies_to_360="true"
       fuse_paths="false"
       starting_angle="0"
       rotation_angle="60"
       num_copies="6" />
    <inkscape:path-effect
       num_copies="4"
       rotation_angle="30"
       starting_angle="0"
       fuse_paths="false"
       copies_to_360="true"
       is_visible="true"
       id="path-effect8629"
       origin="0.2253809,232.36327"
       starting_point="64.59716,232.36327"
       effect="copy_rotate" />
    <inkscape:path-effect
       effect="copy_rotate"
       starting_point="64.59716,232.36327"
       origin="0.2253809,232.36327"
       id="path-effect8604"
       is_visible="true"
       copies_to_360="true"
       fuse_paths="false"
       starting_angle="0"
       rotation_angle="30"
       num_copies="4" />
    <inkscape:path-effect
       effect="copy_rotate"
       starting_point="685.24135,-276"
       origin="550,-276"
       id="path-effect8585"
       is_visible="true"
       copies_to_360="true"
       fuse_paths="false"
       starting_angle="0"
       rotation_angle="30"
       num_copies="8" />
  </defs>
  <sodipodi:namedview
     id="base"
     pagecolor="#ffffff"
     bordercolor="#666666"
     borderopacity="1.0"
     inkscape:pageopacity="0.0"
     inkscape:pageshadow="2"
     inkscape:zoom="0.36"
     inkscape:cx="560.92069"
     inkscape:cy="493.7477"
     inkscape:document-units="mm"
     inkscape:current-layer="layer1"
     showgrid="true"
     units="px"
     inkscape:window-width="732"
     inkscape:window-height="405"
     inkscape:window-x="1434"
     inkscape:window-y="486"
     inkscape:window-maximized="0">
    <inkscape:grid
       type="xygrid"
       id="grid7711"
       empspacing="16" />
  </sodipodi:namedview>
  <metadata
     id="metadata3181">
    <rdf:RDF>
      <cc:Work
         rdf:about="">
        <dc:format>image/svg+xml</dc:format>
        <dc:type
           rdf:resource="http://purl.org/dc/dcmitype/StillImage" />
        <dc:title></dc:title>
      </cc:Work>
    </rdf:RDF>
  </metadata>
  <g
     inkscape:label="Layer 1"
     inkscape:groupmode="layer"
     id="layer1"
     transform="translate(0,-26.066632)">
    <path
       id="path8688"
       style="fill:#000000;fill-opacity:1;stroke:none;stroke-width:5.78329802;stroke-linejoin:bevel;stroke-miterlimit:4;stroke-dasharray:none;stroke-opacity:1"
       d="m 0.38902706,296.77484 c 0.0586,-0.003 0.11766,-10e-4 0.17622,-0.004 1.11236004,-0.0552 2.22099004,-0.13741 3.32486004,-0.24701 1.10386,-0.1096 2.20292,-0.24654 3.29644,-0.4098 1.09352,-0.16326 2.18149,-0.3528 3.2628399,-0.56896 1.08135,-0.21614 2.15628,-0.4588 3.22358,-0.72708 1.06733,-0.26828 2.12717,-0.56248 3.17862,-0.88212 1.05143,-0.31964 2.09426,-0.66483 3.12796,-1.03508 1.03373,-0.37024 2.05801,-0.76538 3.07218,-1.18546 1.01415,-0.42007 2.01843,-0.86513 3.01117,-1.33428 0.99277,-0.46915 1.97451,-0.96255 2.94402,-1.48001 0.96952,-0.51746 1.92672,-1.05867 2.87116,-1.62368 0.9444,-0.565 1.87563,-1.15348 2.7931,-1.76526 0.91746,-0.61179 1.82123,-1.247 2.70991,-1.9048 0.88868,-0.6578 1.76244,-1.33817 2.62051,-2.04122 0.85805,-0.70305 1.70035,-1.42855 2.52595,-2.17609 0.82558,-0.74754 1.63441,-1.51712 2.42568,-2.30839 0.79126,-0.79126 1.56085,-1.60011 2.30838,-2.42569 0.74756,-0.82558 1.47304,-1.66789 2.17609,-2.52594 0.70305,-0.85806 1.38343,-1.73183 2.04124,-2.62051 0.6578,-0.88869 1.29302,-1.79245 1.90479,-2.70992 0.61179,-0.91746 1.20025,-1.8487 1.76527,-2.79311 0.56499,-0.9444 1.10672,-1.90215 1.6242,-2.87166 0.51744,-0.9695 1.01084,-1.95073 1.48,-2.94348 0.46916,-0.99276 0.91368,-1.99703 1.33376,-3.01119 0.42008,-1.01416 0.81574,-2.03844 1.18597,-3.07217 0.37026,-1.03372 0.71543,-2.07653 1.03508,-3.12797 0.31964,-1.05144 0.61333,-2.1113 0.88161,-3.17862 0.26827,-1.06731 0.51094,-2.14223 0.72708,-3.22357 0.0159,-0.0791 0.0262,-0.15955 0.0419,-0.23875 -7.5056,-4.00206 -15.429,-7.33995 -23.71432,-9.89603 -23.99712,10.9754 -39.39951994,34.92673 -39.42962994,61.3146 0,1.00879 0.0296,2.01393 0.0744,3.01738 z M 38.937341,377.9928 c 0.0267,-0.0523 0.05796,-0.1024 0.08465,-0.15461 0.508376,-0.99093 0.991495,-1.99214 1.448513,-3.00292 0.457014,-1.01077 0.887951,-2.03105 1.293323,-3.0597 0.405373,-1.02865 0.785211,-2.06563 1.138686,-3.11018 0.353493,-1.04455 0.680808,-2.0968 0.982121,-3.15525 0.301327,-1.05847 0.576463,-2.12342 0.825371,-3.19382 0.248899,-1.07039 0.471371,-2.1461 0.667575,-3.22643 0.196227,-1.08036 0.366166,-2.16498 0.509451,-3.25332 0.143284,-1.08831 0.259991,-2.18058 0.350065,-3.27489 0.09009,-1.09434 0.153662,-2.19125 0.190284,-3.2896 0.03663,-1.09836 0.04652,-2.19792 0.02943,-3.29834 -0.0171,-1.10037 -0.06113,-2.20108 -0.13221,-3.30152 -0.07109,-1.10044 -0.169318,-2.20074 -0.29465,-3.29925 -0.125331,-1.09852 -0.277669,-2.19541 -0.457493,-3.29004 -0.179834,-1.09462 -0.386986,-2.18682 -0.621574,-3.27558 -0.234599,-1.08875 -0.49666,-2.17401 -0.786285,-3.2549 -0.289621,-1.08088 -0.605311,-2.15179 -0.946519,-3.21196 -0.341193,-1.0602 -0.707915,-2.10964 -1.099483,-3.14752 -0.391577,-1.03789 -0.808094,-2.064 -1.248808,-3.07802 -0.440728,-1.01402 -0.905798,-2.01601 -1.394465,-3.00456 -0.488649,-0.98855 -1.000896,-1.96379 -1.536269,-2.92532 -0.535379,-0.9615 -1.09395,-1.90952 -1.674831,-2.84243 -0.580891,-0.93287 -1.183961,-1.85078 -1.809128,-2.75346 -0.625175,-0.90268 -1.272639,-1.78978 -1.940887,-2.66066 -0.668248,-0.87088 -1.357471,-1.72567 -2.067592,-2.56317 -0.710098,-0.83751 -1.440613,-1.65784 -2.191362,-2.46039 -0.750754,-0.80253 -1.521774,-1.58681 -2.311961,-2.3528 -0.790182,-0.76599 -1.599755,-1.51361 -2.428153,-2.24146 -0.06055,-0.0533 -0.125074,-0.10246 -0.185814,-0.15566 -7.218685,4.49901 -14.0710828,9.69193 -20.427373,15.58919 -2.49358476,26.26981 10.547676,51.58435 33.385186,64.80436 0.873638,0.50439 1.758915,0.98133 2.650328,1.44426 z m 89.610969,7.22516 c -0.0319,-0.0493 -0.0597,-0.1014 -0.0916,-0.15061 -0.60398,-0.93573 -1.2295,-1.85473 -1.87635,-2.75591 -0.64684,-0.90117 -1.31497,-1.78451 -2.00311,-2.6499 -0.68815,-0.86539 -1.39628,-1.71283 -2.12416,-2.54122 -0.72786,-0.82841 -1.47547,-1.638 -2.24146,-2.42817 -0.766,-0.79019 -1.5507,-1.56094 -2.35325,-2.3117 -0.80253,-0.75075 -1.62289,-1.48127 -2.46038,-2.19135 -0.8375,-0.71012 -1.69184,-1.3996 -2.56273,-2.06786 -0.87087,-0.66824 -1.75844,-1.31545 -2.66111,-1.94061 -0.90268,-0.62519 -1.82084,-1.2287 -2.75373,-1.80959 -0.93289,-0.5809 -1.8802,-1.13925 -2.84173,-1.67466 -0.9615,-0.53537 -1.93676,-1.0476 -2.92531,-1.53626 -0.98856,-0.48865 -1.990548,-0.95374 -3.00456,-1.39445 -1.014011,-0.44072 -2.040109,-0.85724 -3.078003,-1.24882 -1.037884,-0.39157 -2.087336,-0.75827 -3.147524,-1.09949 -1.060179,-0.34121 -2.13107,-0.65689 -3.211965,-0.94651 -1.080881,-0.28962 -2.166161,-0.55168 -3.254899,-0.78627 -1.088753,-0.23462 -2.180955,-0.44175 -3.275573,-0.62158 -1.094627,-0.17983 -2.191524,-0.33217 -3.290048,-0.45751 -1.098528,-0.12533 -2.198818,-0.22356 -3.299255,-0.29464 -1.100439,-0.0711 -2.201146,-0.11509 -3.301539,-0.13221 -1.100369,-0.0171 -2.20067,-0.007 -3.299031,0.0292 -1.098331,0.0366 -2.194801,0.0999 -3.289128,0.19002 -1.094335,0.0901 -2.186319,0.20725 -3.274647,0.35053 -1.088328,0.14328 -2.173211,0.31277 -3.253562,0.509 -1.080358,0.19621 -2.156043,0.41869 -3.226442,0.66758 -1.070394,0.24891 -2.135104,0.52449 -3.193571,0.82582 -1.058452,0.30132 -2.110695,0.62862 -3.155233,0.98211 -0.07645,0.0258 -0.151274,0.0571 -0.227714,0.0831 0.286915,8.50107 1.357917,17.03188 3.286947,25.48522 21.503535,15.29441 49.947197,16.65762 72.814817,3.48976 0.87364,-0.5044 1.72931,-1.0326 2.57593,-1.57312 z m 51.06266,-73.9928 c -0.0586,0.003 -0.11766,10e-4 -0.17622,0.004 -1.11236,0.0552 -2.22099,0.13741 -3.32486,0.24701 -1.10386,0.1096 -2.20292,0.24654 -3.29644,0.4098 -1.09352,0.16326 -2.18149,0.3528 -3.26284,0.56896 -1.08135,0.21614 -2.15628,0.4588 -3.22358,0.72708 -1.06733,0.26828 -2.12717,0.56248 -3.17862,0.88212 -1.05143,0.31964 -2.09426,0.66483 -3.12796,1.03508 -1.03373,0.37024 -2.05801,0.76538 -3.07218,1.18546 -1.01415,0.42007 -2.01843,0.86513 -3.01117,1.33428 -0.99277,0.46915 -1.97451,0.96255 -2.94402,1.48001 -0.96952,0.51746 -1.92672,1.05867 -2.87116,1.62368 -0.9444,0.565 -1.87563,1.15348 -2.7931,1.76526 -0.91746,0.61179 -1.82123,1.247 -2.70991,1.9048 -0.88868,0.6578 -1.76244,1.33817 -2.62051,2.04122 -0.85805,0.70305 -1.70035,1.42855 -2.52595,2.17609 -0.82558,0.74754 -1.63441,1.51712 -2.42568,2.30839 -0.79126,0.79126 -1.56085,1.60011 -2.30838,2.42569 -0.74756,0.82558 -1.47304,1.66789 -2.17609,2.52594 -0.70305,0.85806 -1.38343,1.73183 -2.04124,2.62051 -0.6578,0.88869 -1.29302,1.79245 -1.90479,2.70992 -0.61179,0.91746 -1.20025,1.8487 -1.76527,2.79311 -0.56499,0.9444 -1.10672,1.90215 -1.6242,2.87166 -0.51744,0.9695 -1.01084,1.95073 -1.48,2.94348 -0.46916,0.99276 -0.91368,1.99703 -1.33376,3.01119 -0.42008,1.01416 -0.81574,2.03844 -1.18597,3.07217 -0.37026,1.03372 -0.71543,2.07653 -1.03508,3.12797 -0.31964,1.05144 -0.61333,2.1113 -0.88161,3.17862 -0.26827,1.06731 -0.51094,2.14223 -0.72708,3.22357 -0.0159,0.0791 -0.0262,0.15955 -0.0419,0.23875 7.5056,4.00206 15.429,7.33995 23.71432,9.89603 23.99712,-10.9754 39.39952,-34.92673 39.42963,-61.3146 0,-1.00879 -0.0296,-2.01393 -0.0744,-3.01738 z M 141.06266,230.0072 c -0.0267,0.0522 -0.058,0.1024 -0.0846,0.15461 -0.50837,0.99093 -0.99149,1.99214 -1.44851,3.00292 -0.45701,1.01077 -0.88795,2.03105 -1.29332,3.0597 -0.40538,1.02865 -0.78521,2.06563 -1.13869,3.11018 -0.35349,1.04455 -0.68081,2.0968 -0.98212,3.15525 -0.30133,1.05847 -0.57646,2.12342 -0.82537,3.19382 -0.2489,1.07039 -0.47137,2.1461 -0.66758,3.22643 -0.19622,1.08036 -0.36616,2.16498 -0.50945,3.25332 -0.14328,1.08831 -0.25999,2.18058 -0.35006,3.27489 -0.0901,1.09434 -0.15366,2.19125 -0.19029,3.2896 -0.0366,1.09836 -0.0465,2.19792 -0.0294,3.29834 0.0171,1.10037 0.0611,2.20108 0.13221,3.30152 0.0711,1.10044 0.16932,2.20074 0.29465,3.29925 0.12533,1.09852 0.27767,2.19541 0.4575,3.29004 0.17983,1.09462 0.38698,2.18682 0.62157,3.27558 0.2346,1.08875 0.49666,2.17401 0.78628,3.2549 0.28963,1.08088 0.60532,2.15179 0.94652,3.21196 0.3412,1.0602 0.70792,2.10964 1.09949,3.14752 0.39157,1.03789 0.80809,2.064 1.24881,3.07802 0.44072,1.01402 0.90579,2.01601 1.39446,3.00456 0.48865,0.98855 1.0009,1.96379 1.53627,2.92532 0.53538,0.9615 1.09395,1.90952 1.67483,2.84243 0.58089,0.93287 1.18396,1.85078 1.80913,2.75346 0.62517,0.90268 1.27264,1.78978 1.94089,2.66066 0.66824,0.87088 1.35747,1.72567 2.06759,2.56317 0.7101,0.83751 1.44061,1.65784 2.19136,2.46039 0.75075,0.80253 1.52177,1.58681 2.31196,2.3528 0.79018,0.76599 1.59976,1.51361 2.42815,2.24146 0.0606,0.0533 0.12508,0.10246 0.18582,0.15566 7.21868,-4.49901 14.07108,-9.69193 20.42737,-15.58919 2.49358,-26.26981 -10.54768,-51.58435 -33.38519,-64.80436 -0.87363,-0.50439 -1.75891,-0.98133 -2.65032,-1.44426 z m -89.610974,-7.22516 c 0.0319,0.0493 0.0597,0.1014 0.09157,0.15061 0.603984,0.93573 1.229495,1.85473 1.876347,2.75591 0.646846,0.90117 1.31497,1.78451 2.003117,2.6499 0.688147,0.86539 1.396279,1.71283 2.124154,2.54122 0.727857,0.82841 1.475472,1.638 2.241459,2.42817 0.766003,0.79019 1.550707,1.56094 2.353249,2.3117 0.802531,0.75075 1.622889,1.48127 2.460385,2.19135 0.837503,0.71012 1.691844,1.3996 2.562729,2.06786 0.870866,0.66824 1.758439,1.31545 2.661105,1.94061 0.902681,0.62519 1.820848,1.2287 2.753736,1.80959 0.932894,0.5809 1.880196,1.13925 2.841729,1.67466 0.961504,0.53537 1.936758,1.0476 2.92531,1.53626 0.988555,0.48865 1.990548,0.95374 3.00456,1.39445 1.014011,0.44072 2.040109,0.85724 3.078003,1.24882 1.037884,0.39157 2.087336,0.75827 3.147524,1.09949 1.060179,0.34121 2.13107,0.65689 3.211965,0.94651 1.080881,0.28962 2.166161,0.55168 3.254899,0.78627 1.088753,0.23462 2.180955,0.44175 3.275573,0.62158 1.094627,0.17983 2.191524,0.33217 3.290046,0.45751 1.09853,0.12533 2.19882,0.22356 3.29926,0.29464 1.10044,0.0711 2.20114,0.11509 3.30154,0.13221 1.10037,0.0171 2.20067,0.007 3.29903,-0.0292 1.09833,-0.0366 2.1948,-0.0999 3.28913,-0.19002 1.09433,-0.0901 2.18631,-0.20725 3.27464,-0.35053 1.08833,-0.14328 2.17321,-0.31277 3.25356,-0.509 1.08036,-0.19621 2.15605,-0.41869 3.22645,-0.66758 1.07039,-0.24891 2.1351,-0.52449 3.19357,-0.82582 1.05845,-0.30132 2.11069,-0.62862 3.15523,-0.98211 0.0765,-0.0258 0.15127,-0.0571 0.22771,-0.0831 -0.28691,-8.50107 -1.35791,-17.03188 -3.28694,-25.48522 -21.50354,-15.29441 -49.947198,-16.65762 -72.814819,-3.48976 -0.873638,0.5044 -1.729315,1.0326 -2.575928,1.57312 z m 33.917141,-52.44599 c -17.90424,-2e-5 -35.07536,7.11223 -47.73556,19.77244 -8.80335,8.80334 -14.91552,19.79004 -17.82787,31.6854 0.46152,0.15413 0.92803,0.29436 1.38597,0.45837 1.03373,0.37025 2.05801,0.7659 3.07216,1.18598 1.01417,0.42007 2.01792,0.86461 3.01066,1.33377 0.99277,0.46915 1.97451,0.96255 2.94402,1.48001 0.96949,0.51746 1.92672,1.05919 2.87113,1.62419 0.94443,0.565 1.87616,1.15348 2.79363,1.76527 0.91747,0.61178 1.82073,1.24647 2.70941,1.90427 0.39055,0.2891 0.76711,0.59922 1.15186,0.89711 17.07812,-26.40503 43.03787,-46.41384 73.850793,-55.83432 -8.84528,-4.10489 -18.474873,-6.24481 -28.226203,-6.27249 z m -113.44079,70.84269 c -8.952137,15.50552 -11.378308,33.93227 -6.744344,51.22643 3.222241,12.02559 9.680917,22.81224 18.526426,31.28208 0.36424,-0.32262 0.718938,-0.65651 1.089945,-0.9711 0.837511,-0.71011 1.692294,-1.39933 2.563169,-2.06757 0.870876,-0.66827 1.757734,-1.31527 2.6604085,-1.94043 0.9026808,-0.62519 1.8208477,-1.2287 2.7537362,-1.80959 0.9328785,-0.58087 1.8806455,-1.13899 2.8421548,-1.67438 0.9615194,-0.5354 1.937023,-1.04806 2.9255837,-1.53671 0.98855201,-0.48867 1.98983968,-0.95357 3.0038512,-1.39429 0.4456429,-0.19367 0.9024947,-0.36472 1.35285,-0.54898 -14.3283664,-27.9926 -18.6766294,-60.47881 -11.428543,-91.87383 -7.9775794,5.6078 -14.6456004,12.87731 -19.5452374,21.30837 z m 4.631173,133.66395 c 8.952103,15.50554 23.69705209,26.82004 40.991216,31.45399 12.025591,3.22225 24.596437,3.0222 36.354296,-0.40332 -0.09728,-0.47675 -0.209092,-0.95087 -0.296025,-1.42947 -0.196219,-1.08036 -0.365716,-2.16523 -0.508991,-3.25355 -0.143294,-1.08834 -0.260186,-2.17988 -0.350252,-3.2742 -0.09009,-1.09434 -0.153662,-2.19125 -0.190283,-3.2896 -0.03661,-1.09833 -0.04608,-2.19818 -0.02898,-3.29857 0.01709,-1.1004 0.06086,-2.20154 0.131953,-3.30198 0.07108,-1.10045 0.16911,-2.20004 0.294441,-3.29856 0.05509,-0.48277 0.135385,-0.96394 0.20099,-1.44609 -31.406486,-1.58757 -61.7144991,-14.06497 -85.279336,-36.03951 0.867701,9.71269 3.829273,19.12212 8.680966,27.58086 z m 118.071963,62.82126 c 17.904237,2e-5 35.075357,-7.11223 47.735557,-19.77244 8.80335,-8.80334 14.91552,-19.79004 17.82787,-31.6854 -0.46152,-0.15413 -0.92803,-0.29436 -1.38597,-0.45837 -1.03373,-0.37025 -2.05801,-0.7659 -3.07216,-1.18598 -1.01417,-0.42007 -2.01792,-0.86461 -3.01066,-1.33377 -0.99277,-0.46915 -1.97451,-0.96255 -2.94402,-1.48001 -0.96949,-0.51746 -1.92672,-1.05919 -2.87113,-1.62419 -0.94443,-0.565 -1.87616,-1.15348 -2.79363,-1.76527 -0.91747,-0.61178 -1.82073,-1.24647 -2.70941,-1.90427 -0.39055,-0.2891 -0.76711,-0.59922 -1.15186,-0.89711 -17.07812,26.40503 -43.037867,46.41384 -73.85079,55.83432 8.84528,4.10489 18.474873,6.24481 28.226203,6.27249 z M 208.07196,366.82126 c 8.95214,-15.50552 11.37831,-33.93227 6.74435,-51.22643 -3.22224,-12.02559 -9.68092,-22.81224 -18.52643,-31.28208 -0.36424,0.32262 -0.71894,0.65651 -1.08994,0.9711 -0.83751,0.71011 -1.6923,1.39933 -2.56317,2.06757 -0.87088,0.66827 -1.75774,1.31527 -2.66041,1.94043 -0.90268,0.62519 -1.82085,1.2287 -2.75374,1.80959 -0.93288,0.58087 -1.88064,1.13899 -2.84215,1.67438 -0.96152,0.5354 -1.93703,1.04806 -2.92559,1.53671 -0.98855,0.48867 -1.98984,0.95357 -3.00385,1.39429 -0.44564,0.19367 -0.90249,0.36472 -1.35285,0.54898 14.32837,27.9926 18.67663,60.47881 11.42855,91.87383 7.97757,-5.6078 14.6456,-12.87731 19.54523,-21.30837 z m -4.63117,-133.66395 c -8.9521,-15.50554 -23.69705,-26.82004 -40.99122,-31.45399 -12.02559,-3.22225 -24.59643,-3.0222 -36.35429,0.40332 0.0973,0.47675 0.20909,0.95087 0.29602,1.42947 0.19622,1.08036 0.36572,2.16523 0.50899,3.25355 0.1433,1.08834 0.26019,2.17988 0.35026,3.2742 0.0901,1.09434 0.15366,2.19125 0.19028,3.2896 0.0366,1.09833 0.0461,2.19818 0.029,3.29857 -0.0171,1.1004 -0.0609,2.20154 -0.13195,3.30198 -0.0711,1.10045 -0.16911,2.20004 -0.29444,3.29856 -0.0551,0.48277 -0.13539,0.96394 -0.20099,1.44609 31.40649,1.58757 61.7145,14.06497 85.27934,36.03951 -0.86771,-9.71269 -3.82928,-19.12212 -8.68097,-27.58086 z"
       inkscape:connector-curvature="0"
       inkscape:path-effect="#path-effect8721"
       inkscape:original-d="m 0.38902706,296.77484 c 0.0586,-0.003 0.11766,-10e-4 0.17622,-0.004 1.11236004,-0.0552 2.22099004,-0.13741 3.32486004,-0.24701 1.10386,-0.1096 2.20292,-0.24654 3.29644,-0.4098 1.09352,-0.16326 2.18149,-0.3528 3.2628399,-0.56896 1.08135,-0.21614 2.15628,-0.4588 3.22358,-0.72708 1.06733,-0.26828 2.12717,-0.56248 3.17862,-0.88212 1.05143,-0.31964 2.09426,-0.66483 3.12796,-1.03508 1.03373,-0.37024 2.05801,-0.76538 3.07218,-1.18546 1.01415,-0.42007 2.01843,-0.86513 3.01117,-1.33428 0.99277,-0.46915 1.97451,-0.96255 2.94402,-1.48001 0.96952,-0.51746 1.92672,-1.05867 2.87116,-1.62368 0.9444,-0.565 1.87563,-1.15348 2.7931,-1.76526 0.91746,-0.61179 1.82123,-1.247 2.70991,-1.9048 0.88868,-0.6578 1.76244,-1.33817 2.62051,-2.04122 0.85805,-0.70305 1.70035,-1.42855 2.52595,-2.17609 0.82558,-0.74754 1.63441,-1.51712 2.42568,-2.30839 0.79126,-0.79126 1.56085,-1.60011 2.30838,-2.42569 0.74756,-0.82558 1.47304,-1.66789 2.17609,-2.52594 0.70305,-0.85806 1.38343,-1.73183 2.04124,-2.62051 0.6578,-0.88869 1.29302,-1.79245 1.90479,-2.70992 0.61179,-0.91746 1.20025,-1.8487 1.76527,-2.79311 0.56499,-0.9444 1.10672,-1.90215 1.6242,-2.87166 0.51744,-0.9695 1.01084,-1.95073 1.48,-2.94348 0.46916,-0.99276 0.91368,-1.99703 1.33376,-3.01119 0.42008,-1.01416 0.81574,-2.03844 1.18597,-3.07217 0.37026,-1.03372 0.71543,-2.07653 1.03508,-3.12797 0.31964,-1.05144 0.61333,-2.1113 0.88161,-3.17862 0.26827,-1.06731 0.51094,-2.14223 0.72708,-3.22357 0.0159,-0.0791 0.0262,-0.15955 0.0419,-0.23875 -7.5056,-4.00206 -15.429,-7.33995 -23.71432,-9.89603 -23.99712,10.9754 -39.39951994,34.92673 -39.42962994,61.3146 0,1.00879 0.0296,2.01393 0.0744,3.01738 z M 85.368827,170.33605 c -17.90424,-2e-5 -35.07536,7.11223 -47.73556,19.77244 -8.80335,8.80334 -14.91552,19.79004 -17.82787,31.6854 0.46152,0.15413 0.92803,0.29436 1.38597,0.45837 1.03373,0.37025 2.05801,0.7659 3.07216,1.18598 1.01417,0.42007 2.01792,0.86461 3.01066,1.33377 0.99277,0.46915 1.97451,0.96255 2.94402,1.48001 0.96949,0.51746 1.92672,1.05919 2.87113,1.62419 0.94443,0.565 1.87616,1.15348 2.79363,1.76527 0.91747,0.61178 1.82073,1.24647 2.70941,1.90427 0.39055,0.2891 0.76711,0.59922 1.15186,0.89711 17.07812,-26.40503 43.03787,-46.41384 73.850793,-55.83432 -8.84528,-4.10489 -18.474873,-6.24481 -28.226203,-6.27249 z"
       transform="matrix(1.0638014,0,0,1.0117909,39.72453,-146.05247)" />
  </g>
</svg>
